<svg width="1860" height="1983" viewBox="0 0 1860 1983" fill="none" xmlns="http://www.w3.org/2000/svg">
<rect x="82" y="118" width="1696" height="1860" fill="#5F4E47"/>
<path d="M128 118H1724V1978H128V118Z" fill="#FFF3E1"/>
<path d="M1778 118L1724 187H128.32L82 118H1778Z" fill="#BCAA93"/>
<path d="M1835 49L1777.62 118H82.2154L33 49H1835Z" fill="#AB5832"/>
<rect x="1280" y="1249" width="340.039" height="340.039" rx="30" fill="#A6CFD5"/>
<path fill-rule="evenodd" clip-rule="evenodd" d="M1470.26 1249H1429.78V1398.78H1280V1439.26H1429.78V1589.04H1470.26V1439.26H1620.04V1398.78H1470.26V1249Z" fill="#FFF3E1"/>
<rect x="760" y="744" width="340.039" height="340.039" rx="30" fill="#A6CFD5"/>
<path fill-rule="evenodd" clip-rule="evenodd" d="M950.259 744H909.778V893.779H760V934.26H909.778V1084.04H950.259V934.26H1100.04V893.779H950.259V744Z" fill="#FFF3E1"/>
<rect x="225" y="1249" width="340.039" height="340.039" rx="30" fill="#A6CFD5"/>
<path fill-rule="evenodd" clip-rule="evenodd" d="M415.259 1249H374.778V1398.78H225V1439.26H374.778V1589.04H415.259V1439.26H565.039V1398.78H415.259V1249Z" fill="#FFF3E1"/>
<rect x="1280" y="744" width="340.039" height="340.039" rx="30" fill="#A6CFD5"/>
<path fill-rule="evenodd" clip-rule="evenodd" d="M1470.26 744H1429.78V893.779H1280V934.26H1429.78V1084.04H1470.26V934.26H1620.04V893.779H1470.26V744Z" fill="#FFF3E1"/>
<rect x="225" y="744" width="340.039" height="340.039" rx="30" fill="#A6CFD5"/>
<path fill-rule="evenodd" clip-rule="evenodd" d="M415.259 744H374.778V893.779H225V934.26H374.778V1084.04H415.259V934.26H565.039V893.779H415.259V744Z" fill="#FFF3E1"/>
<rect x="760" y="239" width="340.039" height="340.039" rx="30" fill="#A6CFD5"/>
<path fill-rule="evenodd" clip-rule="evenodd" d="M950.259 239H909.778V388.779H760V429.26H909.778V579.039H950.259V429.26H1100.04V388.779H950.259V239Z" fill="#FFF3E1"/>
<rect x="1280" y="239" width="340.039" height="340.039" rx="30" fill="#A6CFD5"/>
<path fill-rule="evenodd" clip-rule="evenodd" d="M1470.26 239H1429.78V388.779H1280V429.26H1429.78V579.039H1470.26V429.26H1620.04V388.779H1470.26V239Z" fill="#FFF3E1"/>
<rect x="225" y="239" width="340.039" height="340.039" rx="30" fill="#A6CFD5"/>
<path fill-rule="evenodd" clip-rule="evenodd" d="M415.259 239H374.778V388.779H225V429.26H374.778V579.039H415.259V429.26H565.039V388.779H415.259V239Z" fill="#FFF3E1"/>
<path fill-rule="evenodd" clip-rule="evenodd" d="M1172.02 1405.51C1172.02 1273.78 1065.23 1167 933.508 1167C801.783 1167 695 1273.78 695 1405.51V1977.93H1172.02V1405.51Z" fill="#D27857"/>
<mask id="path-22-inside-1_124_98" fill="white">
<path d="M753.543 1429.36H1113.47V1969.25H753.543V1429.36Z"/>
</mask>
<path d="M1113.47 1969.25V2019.25H1163.47V1969.25H1113.47ZM753.543 1969.25H703.543V2019.25H753.543V1969.25ZM1063.47 1429.36V1969.25H1163.47V1429.36H1063.47ZM1113.47 1919.25H753.543V2019.25H1113.47V1919.25ZM803.543 1969.25V1429.36H703.543V1969.25H803.543Z" fill="#AB5932" mask="url(#path-22-inside-1_124_98)"/>
<circle cx="933.508" cy="1429.36" r="154.965" stroke="#AB5932" stroke-width="50"/>
<rect x="803.281" y="1425.22" width="260" height="184" fill="#D27857"/>
<rect x="768.281" y="1603.22" width="327" height="91" fill="#AB5932"/>
<circle cx="1100.46" cy="1648.35" r="45.5333" fill="#FFBA02"/>
<circle cx="1099.58" cy="1648.58" r="44.076" fill="#D3883E" stroke="#F9C23C" stroke-width="5"/>
<path fill-rule="evenodd" clip-rule="evenodd" d="M1101.3 1620.71C1100.37 1620.35 1099.34 1620.35 1098.41 1620.71L1080.34 1627.71C1076.8 1629.08 1077.13 1633.78 1080.09 1635.09V1662.33C1079.28 1662.83 1078.66 1663.61 1078.38 1664.57C1077.62 1667.1 1079.52 1669.64 1082.16 1669.64H1117.04C1119.73 1669.64 1121.64 1667 1120.79 1664.44C1120.47 1663.5 1119.83 1662.74 1119.01 1662.27V1635.31C1122.52 1634.41 1123.15 1629.17 1119.37 1627.71L1101.3 1620.71Z" fill="#F9C23C"/>
<rect x="1085.65" y="1635.99" width="5.85218" height="25.7496" rx="2.92609" fill="#D3883E"/>
<rect x="1096.77" y="1635.99" width="5.85218" height="25.7496" rx="2.92609" fill="#D3883E"/>
<rect x="1107.89" y="1635.99" width="5.85218" height="25.7496" rx="2.92609" fill="#D3883E"/>
<path fill-rule="evenodd" clip-rule="evenodd" d="M609.755 1848.12V1982.55H58C44.1929 1982.55 33 1971.36 33 1957.55V1836.2V1832.94H33.0432C34.9019 1762.68 97.2357 1652.77 323.546 1709.35C588.167 1648.75 608.141 1760.71 609.635 1832.94H609.755V1848.12Z" fill="#728037"/>
<path fill-rule="evenodd" clip-rule="evenodd" d="M1242.88 1848.29V1982.56H1794.64C1808.45 1982.56 1819.64 1971.37 1819.64 1957.56V1832.95H1819.6C1817.74 1762.69 1755.4 1652.78 1529.09 1709.36C1264.47 1648.76 1244.5 1760.71 1243 1832.95H1242.88V1846.96C1242.88 1847.35 1242.88 1847.74 1242.88 1848.13C1242.88 1848.18 1242.88 1848.24 1242.88 1848.29Z" fill="#728037"/>
<rect width="1860" height="49" rx="24.5" fill="#ED6C31"/>
</svg>
