<svg width="5019" height="2049" viewBox="0 0 5019 2049" fill="none" xmlns="http://www.w3.org/2000/svg">
<path d="M2926.16 440.155H3153.83V923.675H2926.16V440.155Z" fill="#AB5832"/>
<rect x="2891.47" y="1090.63" width="1695.57" height="899.824" fill="#5F4E47"/>
<path d="M3724.5 21.363C3736.23 9.5808 3755.3 9.58083 3767.03 21.3631L4797.08 1056.27C4815.91 1075.19 4802.51 1107.43 4775.82 1107.43H2715.7C2689.01 1107.43 2675.61 1075.19 2694.44 1056.27L3724.5 21.363Z" fill="#ED6C31"/>
<path d="M3743.34 148.743C3745.28 146.82 3748.42 146.82 3750.36 148.743L4712.81 1099.42C4715.99 1102.56 4713.77 1107.98 4709.3 1107.98H2784.4C2779.93 1107.98 2777.7 1102.56 2780.88 1099.42L3743.34 148.743Z" fill="#AB5832"/>
<path fill-rule="evenodd" clip-rule="evenodd" d="M4550.16 1087.38L3737.09 310.06L2924.02 1087.38H2939.17V1962.27H4535.01V1087.38H4550.16Z" fill="#FFF3E1"/>
<path d="M2889.3 1094.97V1238.07L3751.18 415.22L4584.88 1238.07V1094.97L3751.18 268.863L2889.3 1094.97Z" fill="#BCAA93"/>
<rect x="2984.71" y="1194.71" width="455.333" height="455.333" rx="30" fill="#A6CFD5"/>
<path fill-rule="evenodd" clip-rule="evenodd" d="M3239.48 1194.71H3185.27V1395.27H2984.71V1449.48H3185.27V1650.04H3239.48V1449.48H3440.04V1395.27H3239.48V1194.71Z" fill="#FFF3E1"/>
<rect x="4031.97" y="1194.71" width="455.333" height="455.333" rx="30" fill="#A6CFD5"/>
<path fill-rule="evenodd" clip-rule="evenodd" d="M4286.74 1194.71H4232.54V1395.27H4031.97V1449.48H4232.54V1650.04H4286.74V1449.48H4487.31V1395.27H4286.74V1194.71Z" fill="#FFF3E1"/>
<path fill-rule="evenodd" clip-rule="evenodd" d="M3971.26 1305.29C3971.26 1173.56 3864.48 1066.78 3732.75 1066.78C3601.03 1066.78 3494.25 1173.56 3494.25 1305.29V1877.7H3971.26V1305.29Z" fill="#D27857"/>
<mask id="path-12-inside-1_138_311" fill="white">
<path d="M3552.79 1329.14H3912.72V1869.03H3552.79V1329.14Z"/>
</mask>
<path d="M3912.72 1869.03V1919.03H3962.72V1869.03H3912.72ZM3552.79 1869.03H3502.79V1919.03H3552.79V1869.03ZM3862.72 1329.14V1869.03H3962.72V1329.14H3862.72ZM3912.72 1819.03H3552.79V1919.03H3912.72V1819.03ZM3602.79 1869.03V1329.14H3502.79V1869.03H3602.79Z" fill="#AB5932" mask="url(#path-12-inside-1_138_311)"/>
<circle cx="3732.75" cy="1329.14" r="154.965" stroke="#AB5932" stroke-width="50"/>
<rect x="3602.53" y="1325" width="260" height="184" fill="#D27857"/>
<rect x="3567.53" y="1503" width="327" height="91" fill="#AB5932"/>
<circle cx="3899.71" cy="1548.13" r="45.5333" fill="#FFBA02"/>
<rect x="3409.69" y="1869.03" width="637.466" height="112.749" fill="#B0B0B0"/>
<rect x="3388" y="1936.25" width="726.364" height="112.749" fill="#9B9B9B"/>
<path fill-rule="evenodd" clip-rule="evenodd" d="M3411.85 1914.56V2049H2860.1C2846.29 2049 2835.1 2037.8 2835.1 2024V1902.64V1899.39H2835.14C2837 1829.12 2899.33 1719.22 3125.64 1775.8C3390.26 1715.19 3410.24 1827.15 3411.73 1899.39H3411.85V1914.56Z" fill="#728037"/>
<path fill-rule="evenodd" clip-rule="evenodd" d="M4044.98 1914.74V2049H4596.74C4610.54 2049 4621.74 2037.81 4621.74 2024V1899.39H4621.69C4619.83 1829.13 4557.5 1719.22 4331.19 1775.8C4066.57 1715.2 4046.6 1827.16 4045.1 1899.39H4044.98V1913.41C4044.98 1913.8 4044.98 1914.19 4044.98 1914.57C4044.98 1914.63 4044.98 1914.68 4044.98 1914.74Z" fill="#728037"/>
<circle cx="3732.75" cy="754.551" r="101.576" fill="#D3883E" stroke="#F9C23C" stroke-width="5"/>
<path fill-rule="evenodd" clip-rule="evenodd" d="M3734.82 691.604C3733.89 691.244 3732.86 691.244 3731.93 691.604L3665.1 717.464C3660.97 719.063 3662.11 725.195 3666.54 725.195H3689.21V784.296C3687.78 784.838 3686.64 786.021 3686.19 787.551L3683.92 795.205C3682.97 798.41 3685.37 801.626 3688.71 801.626H3777.08C3780.49 801.626 3782.9 798.282 3781.82 795.044L3779.27 787.391C3778.77 785.89 3777.61 784.749 3776.17 784.249V725.195H3800.21C3804.64 725.195 3805.78 719.063 3801.65 717.464L3734.82 691.604Z" fill="#F9C23C"/>
<rect x="3701.63" y="726.434" width="13.0769" height="57.5385" rx="5" fill="#D3883E"/>
<rect x="3726.48" y="726.434" width="13.0769" height="57.5385" rx="5" fill="#D3883E"/>
<rect x="3751.32" y="726.434" width="13.0769" height="57.5385" rx="5" fill="#D3883E"/>
<rect x="1886" y="1990" width="1293" height="59" fill="#1E1E1E"/>
<path d="M1599 1922H2186C2213.61 1922 2236 1944.39 2236 1972V2049H1599V1922Z" fill="#B0B0B0"/>
<path d="M2683 1972C2683 1944.39 2705.39 1922 2733 1922H3320V2049H2683V1972Z" fill="#B0B0B0"/>
<rect x="348" y="184" width="1696" height="1860" fill="#5F4E47"/>
<path d="M394 184H1990V2044H394V184Z" fill="#FFF3E1"/>
<path d="M2044 184L1990 253H394.32L348 184H2044Z" fill="#BCAA93"/>
<path d="M2101 115L2043.62 184H348.215L299 115H2101Z" fill="#AB5832"/>
<rect x="1546" y="1315" width="340.039" height="340.039" rx="30" fill="#A6CFD5"/>
<path fill-rule="evenodd" clip-rule="evenodd" d="M1736.26 1315H1695.78V1464.78H1546V1505.26H1695.78V1655.04H1736.26V1505.26H1886.04V1464.78H1736.26V1315Z" fill="#FFF3E1"/>
<rect x="1026" y="810" width="340.039" height="340.039" rx="30" fill="#A6CFD5"/>
<path fill-rule="evenodd" clip-rule="evenodd" d="M1216.26 810H1175.78V959.779H1026V1000.26H1175.78V1150.04H1216.26V1000.26H1366.04V959.779H1216.26V810Z" fill="#FFF3E1"/>
<rect x="491" y="1315" width="340.039" height="340.039" rx="30" fill="#A6CFD5"/>
<path fill-rule="evenodd" clip-rule="evenodd" d="M681.259 1315H640.778V1464.78H491V1505.26H640.778V1655.04H681.259V1505.26H831.039V1464.78H681.259V1315Z" fill="#FFF3E1"/>
<rect x="1546" y="810" width="340.039" height="340.039" rx="30" fill="#A6CFD5"/>
<path fill-rule="evenodd" clip-rule="evenodd" d="M1736.26 810H1695.78V959.779H1546V1000.26H1695.78V1150.04H1736.26V1000.26H1886.04V959.779H1736.26V810Z" fill="#FFF3E1"/>
<rect x="491" y="810" width="340.039" height="340.039" rx="30" fill="#A6CFD5"/>
<path fill-rule="evenodd" clip-rule="evenodd" d="M681.259 810H640.778V959.779H491V1000.26H640.778V1150.04H681.259V1000.26H831.039V959.779H681.259V810Z" fill="#FFF3E1"/>
<rect x="1026" y="305" width="340.039" height="340.039" rx="30" fill="#A6CFD5"/>
<path fill-rule="evenodd" clip-rule="evenodd" d="M1216.26 305H1175.78V454.779H1026V495.26H1175.78V645.039H1216.26V495.26H1366.04V454.779H1216.26V305Z" fill="#FFF3E1"/>
<rect x="1546" y="305" width="340.039" height="340.039" rx="30" fill="#A6CFD5"/>
<path fill-rule="evenodd" clip-rule="evenodd" d="M1736.26 305H1695.78V454.779H1546V495.26H1695.78V645.039H1736.26V495.26H1886.04V454.779H1736.26V305Z" fill="#FFF3E1"/>
<rect x="491" y="305" width="340.039" height="340.039" rx="30" fill="#A6CFD5"/>
<path fill-rule="evenodd" clip-rule="evenodd" d="M681.259 305H640.778V454.779H491V495.26H640.778V645.039H681.259V495.26H831.039V454.779H681.259V305Z" fill="#FFF3E1"/>
<path fill-rule="evenodd" clip-rule="evenodd" d="M1438.02 1471.51C1438.02 1339.78 1331.23 1233 1199.51 1233C1067.78 1233 961 1339.78 961 1471.51V2043.93H1438.02V1471.51Z" fill="#D27857"/>
<mask id="path-51-inside-2_138_311" fill="white">
<path d="M1019.54 1495.36H1379.47V2035.25H1019.54V1495.36Z"/>
</mask>
<path d="M1379.47 2035.25V2085.25H1429.47V2035.25H1379.47ZM1019.54 2035.25H969.543V2085.25H1019.54V2035.25ZM1329.47 1495.36V2035.25H1429.47V1495.36H1329.47ZM1379.47 1985.25H1019.54V2085.25H1379.47V1985.25ZM1069.54 2035.25V1495.36H969.543V2035.25H1069.54Z" fill="#AB5932" mask="url(#path-51-inside-2_138_311)"/>
<circle cx="1199.51" cy="1495.36" r="154.965" stroke="#AB5932" stroke-width="50"/>
<rect x="1069.28" y="1491.22" width="260" height="184" fill="#D27857"/>
<rect x="1034.28" y="1669.22" width="327" height="91" fill="#AB5932"/>
<circle cx="1366.46" cy="1714.35" r="45.5333" fill="#FFBA02"/>
<circle cx="1365.58" cy="1714.58" r="44.076" fill="#D3883E" stroke="#F9C23C" stroke-width="5"/>
<path fill-rule="evenodd" clip-rule="evenodd" d="M1367.3 1686.71C1366.37 1686.35 1365.34 1686.35 1364.41 1686.71L1346.34 1693.71C1342.8 1695.08 1343.13 1699.78 1346.09 1701.09V1728.33C1345.28 1728.83 1344.66 1729.61 1344.38 1730.57C1343.62 1733.1 1345.52 1735.64 1348.16 1735.64H1383.04C1385.73 1735.64 1387.64 1733 1386.79 1730.44C1386.47 1729.5 1385.83 1728.74 1385.01 1728.27V1701.31C1388.52 1700.41 1389.15 1695.17 1385.37 1693.71L1367.3 1686.71Z" fill="#F9C23C"/>
<rect x="1351.65" y="1701.99" width="5.85218" height="25.7496" rx="2.92609" fill="#D3883E"/>
<rect x="1362.77" y="1701.99" width="5.85218" height="25.7496" rx="2.92609" fill="#D3883E"/>
<rect x="1373.89" y="1701.99" width="5.85218" height="25.7496" rx="2.92609" fill="#D3883E"/>
<path fill-rule="evenodd" clip-rule="evenodd" d="M875.755 1914.12V2048.55H324C310.193 2048.55 299 2037.36 299 2023.55V1902.2V1898.94H299.043C300.902 1828.68 363.236 1718.77 589.546 1775.35C854.167 1714.75 874.141 1826.71 875.635 1898.94H875.755V1914.12Z" fill="#728037"/>
<path fill-rule="evenodd" clip-rule="evenodd" d="M1508.88 1914.29V2048.56H2060.64C2074.45 2048.56 2085.64 2037.37 2085.64 2023.56V1898.95H2085.6C2083.74 1828.69 2021.4 1718.78 1795.09 1775.36C1530.47 1714.76 1510.5 1826.71 1509 1898.95H1508.88V1912.96C1508.88 1913.35 1508.88 1913.74 1508.88 1914.13C1508.88 1914.18 1508.88 1914.24 1508.88 1914.29Z" fill="#728037"/>
<rect x="266" y="66" width="1860" height="49" rx="24.5" fill="#ED6C31"/>
</svg>
