<svg width="434" height="909" viewBox="0 0 434 909" fill="none" xmlns="http://www.w3.org/2000/svg">
<path d="M218 534V221.573M97 30H218V122.884M218 122.884H141M218 122.884V221.573M218 221.573H97" stroke="#F9C23C" stroke-width="60" stroke-linecap="round" stroke-linejoin="round"/>
<circle cx="217" cy="692" r="192" fill="#D3883E" stroke="#F9C23C" stroke-width="50"/>
<path fill-rule="evenodd" clip-rule="evenodd" d="M219.565 561.245C218.295 560.479 216.705 560.479 215.435 561.245L111.608 623.824C108.137 625.916 109.62 631.25 113.673 631.25H126.208V753.342H125.849C123.635 753.342 121.684 754.799 121.055 756.922L113.112 783.73C112.163 786.935 114.564 790.151 117.906 790.151H316.944C320.357 790.151 322.767 786.807 321.688 783.57L312.752 756.761C312.071 754.719 310.16 753.342 308.008 753.342H307.524V631.25H321.327C325.38 631.25 326.863 625.916 323.392 623.824L219.565 561.245Z" fill="#F9C23C"/>
<rect x="152.11" y="633.374" width="27.2656" height="119.969" rx="5" fill="#D3883E"/>
<rect x="203.915" y="633.374" width="27.2656" height="119.969" rx="5" fill="#D3883E"/>
<rect x="255.717" y="633.374" width="27.2656" height="119.969" rx="5" fill="#D3883E"/>
</svg>
