<svg width="2546" height="2050" viewBox="0 0 2546 2050" fill="none" xmlns="http://www.w3.org/2000/svg">
<path d="M453.164 440.155H680.83V923.675H453.164V440.155Z" fill="#AB5832"/>
<rect x="418.473" y="1090.63" width="1695.57" height="899.824" fill="#5F4E47"/>
<path d="M1251.5 21.363C1263.23 9.5808 1282.3 9.58083 1294.03 21.3631L2324.08 1056.27C2342.91 1075.19 2329.51 1107.43 2302.82 1107.43H242.704C216.011 1107.43 202.611 1075.19 221.442 1056.27L1251.5 21.363Z" fill="#ED6C31"/>
<path d="M1270.34 148.743C1272.28 146.82 1275.42 146.82 1277.36 148.743L2239.81 1099.42C2242.99 1102.56 2240.77 1107.98 2236.3 1107.98H311.396C306.926 1107.98 304.702 1102.56 307.882 1099.42L1270.34 148.743Z" fill="#AB5832"/>
<path fill-rule="evenodd" clip-rule="evenodd" d="M2077.16 1087.38L1264.09 310.06L451.02 1087.38H466.173V1962.27H2062.01V1087.38H2077.16Z" fill="#FFF3E1"/>
<path d="M416.305 1094.97V1238.07L1278.18 415.22L2111.88 1238.07V1094.97L1278.18 268.863L416.305 1094.97Z" fill="#BCAA93"/>
<rect x="511.707" y="1194.71" width="455.333" height="719.294" rx="30" fill="#A6CFD5"/>
<path d="M712.27 1194.71H766.476V1914H712.27V1194.71Z" fill="#FFF3E1"/>
<rect x="1558.97" y="1194.71" width="455.333" height="455.333" rx="30" fill="#A6CFD5"/>
<path fill-rule="evenodd" clip-rule="evenodd" d="M1813.74 1194.71H1759.54V1395.27H1558.97V1449.48H1759.54V1650.04H1813.74V1449.48H2014.31V1395.27H1813.74V1194.71Z" fill="#FFF3E1"/>
<path fill-rule="evenodd" clip-rule="evenodd" d="M1498.26 1305.29C1498.26 1173.56 1391.48 1066.78 1259.75 1066.78C1128.03 1066.78 1021.25 1173.56 1021.25 1305.29V1877.7H1498.26V1305.29Z" fill="#D27857"/>
<mask id="path-12-inside-1_124_159" fill="white">
<path d="M1079.79 1329.14H1439.72V1869.03H1079.79V1329.14Z"/>
</mask>
<path d="M1439.72 1869.03V1919.03H1489.72V1869.03H1439.72ZM1079.79 1869.03H1029.79V1919.03H1079.79V1869.03ZM1389.72 1329.14V1869.03H1489.72V1329.14H1389.72ZM1439.72 1819.03H1079.79V1919.03H1439.72V1819.03ZM1129.79 1869.03V1329.14H1029.79V1869.03H1129.79Z" fill="#AB5932" mask="url(#path-12-inside-1_124_159)"/>
<circle cx="1259.75" cy="1329.14" r="154.965" stroke="#AB5932" stroke-width="50"/>
<rect x="1129.53" y="1325" width="260" height="184" fill="#D27857"/>
<rect x="1094.53" y="1503" width="327" height="91" fill="#AB5932"/>
<circle cx="1426.71" cy="1548.13" r="45.5333" fill="#FFBA02"/>
<rect x="418" y="1869" width="1156" height="121" fill="#B0B0B0"/>
<rect x="915.002" y="1936.25" width="726.364" height="112.749" fill="#9B9B9B"/>
<path fill-rule="evenodd" clip-rule="evenodd" d="M1571.98 1914.74V2049H2123.73C2137.54 2049 2148.73 2037.81 2148.73 2024V1899.39H2148.69C2146.83 1829.13 2084.5 1719.22 1858.19 1775.8C1593.57 1715.2 1573.59 1827.16 1572.1 1899.39H1571.98V1913.41C1571.98 1913.8 1571.98 1914.19 1571.98 1914.57C1571.98 1914.63 1571.98 1914.68 1571.98 1914.74Z" fill="#728037"/>
<circle cx="1259.75" cy="754.551" r="101.576" fill="#D3883E" stroke="#F9C23C" stroke-width="5"/>
<path fill-rule="evenodd" clip-rule="evenodd" d="M1261.82 691.604C1260.89 691.244 1259.86 691.244 1258.93 691.604L1192.1 717.464C1187.97 719.063 1189.11 725.195 1193.54 725.195H1216.21V784.296C1214.78 784.838 1213.64 786.021 1213.19 787.551L1210.92 795.205C1209.97 798.41 1212.37 801.626 1215.71 801.626H1304.08C1307.49 801.626 1309.9 798.282 1308.82 795.044L1306.27 787.391C1305.77 785.89 1304.61 784.749 1303.17 784.249V725.195H1327.21C1331.64 725.195 1332.78 719.063 1328.65 717.464L1261.82 691.604Z" fill="#F9C23C"/>
<rect x="1228.63" y="726.434" width="13.0769" height="57.5385" rx="5" fill="#D3883E"/>
<rect x="1253.48" y="726.434" width="13.0769" height="57.5385" rx="5" fill="#D3883E"/>
<rect x="1278.32" y="726.434" width="13.0769" height="57.5385" rx="5" fill="#D3883E"/>
</svg>
